<?xml version="1.0" encoding="UTF-8" standalone="no"?>
<svg
   xmlns:dc="http://purl.org/dc/elements/1.1/"
   xmlns:cc="http://creativecommons.org/ns#"
   xmlns:rdf="http://www.w3.org/1999/02/22-rdf-syntax-ns#"
   xmlns:svg="http://www.w3.org/2000/svg"
   xmlns="http://www.w3.org/2000/svg"
   xmlns:sodipodi="http://sodipodi.sourceforge.net/DTD/sodipodi-0.dtd"
   xmlns:inkscape="http://www.inkscape.org/namespaces/inkscape"
   version="1.1"
   id="svg2"
   viewBox="0 0 566.92914 566.92913"
   height="160mm"
   width="160mm"
   inkscape:version="0.91 r13725"
   sodipodi:docname="poison-ivy.svg">
  <sodipodi:namedview
     pagecolor="#ffffff"
     bordercolor="#666666"
     borderopacity="1"
     objecttolerance="10"
     gridtolerance="10"
     guidetolerance="10"
     inkscape:pageopacity="0"
     inkscape:pageshadow="2"
     inkscape:window-width="841"
     inkscape:window-height="603"
     id="namedview21"
     showgrid="false"
     inkscape:zoom="0.54364635"
     inkscape:cx="251.55992"
     inkscape:cy="203.40641"
     inkscape:window-x="0"
     inkscape:window-y="0"
     inkscape:window-maximized="0"
     inkscape:current-layer="svg2" />
  <defs
     id="defs4" />
  <metadata
     id="metadata7">
    <rdf:RDF>
      <cc:Work
         rdf:about="">
        <dc:format>image/svg+xml</dc:format>
        <dc:type
           rdf:resource="http://purl.org/dc/dcmitype/StillImage" />
        <dc:title />
      </cc:Work>
    </rdf:RDF>
  </metadata>
  <g
     transform="translate(-144.1489,185.91958)"
     style="display:inline;fill:#ff2f2f;fill-opacity:1"
     id="layer3">
    <path
       id="path4239"
       d="m 327.00962,204.77136 -73.61189,-32.4172 84.8137,108.5976 c 0,0 -151.39803,-94.40504 -180.02909,-169.37983 -28.63108,-74.9748 11.12007,-202.770063 53.60866,-200.986628 42.48859,1.783434 59.74157,80.1815015 88.81436,118.322758 -23.73232,-29.50185749 -76.25662,-73.350279 -61.4002,-90.555684 38.22705,-40.702926 132.27609,-47.355786 193.74463,-15.483836 61.46854,31.871963 90.33317,58.333829 101.18168,67.7077325 13.88124,11.994403 26.6003,17.2831199 51.38023,4.309793 24.77993,-12.9733275 50.07049,-5.1999675 50.07049,-5.1999675 0,0 -32.99259,1.1385095 -46.1972,18.0097964 C 576.18039,24.56718 576.09002,23.82625 571.12752,45.29564 c -4.9625,21.46939 38.12942,15.92405 57.61832,8.19904 39.07164,-15.48721 79.74108,8.78151 79.74108,8.78151 0,0 -41.4754,-12.46349 -66.78284,11.18228 -26.1646,24.446666 -42.5902,19.530386 -59.93023,43.74362 -16.50638,23.04912 1.65767,33.6498 41.84729,20.26978 40.18963,-13.38002 76.21829,5.77707 76.21829,5.77707 0,0 -34.76547,-9.69709 -67.43218,14.81558 -32.66671,24.51266 -53.71735,15.06419 -63.75857,33.73996 -14.14085,26.3007 4.5428,24.6358 22.40991,19.07872 18.54414,-5.76764 42.69687,2.70651 42.69687,2.70651 0,0 -34.18059,-1.15431 -47.07443,14.00771 -21.08117,24.7896 -63.29129,34.72445 -73.24128,47.68134 -7.88637,10.26962 17.65433,13.70289 21.67426,5.99256 4.01993,-7.71033 26.89135,-3.62196 26.89135,-3.62196 0,0 -16.48083,-1.65581 -26.68571,13.29671 -13.38479,19.61183 -57.08508,6.07843 -75.36621,7.77804 -36.72975,3.41479 -123.1237,3.74602 -134.54408,-37.22266 -11.42037,-40.96869 23.20375,-9.72516 23.20375,-9.72516 z"
       style="fill:#ff2f2f;fill-opacity:1;fill-rule:evenodd;stroke:none;stroke-width:1px;stroke-linecap:butt;stroke-linejoin:miter;stroke-opacity:1" />
  </g>
  <g
     transform="translate(-144.1489,185.91958)"
     style="display:inline;fill:#a30000;fill-opacity:1"
     id="layer7">
    <path
       style="display:inline;fill:#a30000;fill-opacity:1;fill-rule:evenodd;stroke:none;stroke-width:1px;stroke-linecap:butt;stroke-linejoin:miter;stroke-opacity:1"
       d="m 708.48692,62.27619 c 0,0 -41.4754,-12.46349 -66.78284,11.18228 -26.1646,24.446666 -42.5902,19.530386 -59.93023,43.74362 -16.50638,23.04912 1.65767,33.6498 41.84729,20.26978 40.18963,-13.38002 76.21829,5.77707 76.21829,5.77707 0,0 -34.76547,-9.69709 -67.43218,14.81558 -32.66671,24.51266 -53.71735,15.06419 -63.75857,33.73996 -14.14085,26.3007 4.5428,24.6358 22.40991,19.07872 18.54414,-5.76764 42.69687,2.70651 42.69687,2.70651 0,0 -34.18059,-1.15431 -47.07443,14.00771 -21.08117,24.7896 -63.29129,34.72445 -73.24128,47.68134 -7.88637,10.26962 17.65433,13.70289 21.67426,5.99256 4.01993,-7.71033 26.89135,-3.62196 26.89135,-3.62196 0,0 -16.48083,-1.65581 -26.68571,13.29671 -13.38479,19.61183 -57.08508,6.07843 -75.36621,7.77804 -36.72975,3.41479 -123.1237,3.74602 -134.54408,-37.22266 -11.42037,-40.96869 23.20375,-9.72516 23.20375,-9.72516 C 383.62,143.1613 490.40665,82.92786 522.79813,93.766836 c 32.39148,10.838994 63.16751,2.2303 91.81101,-19.132376 28.4514,-21.21942 68.60684,-24.11973 93.87778,-12.35827 z"
       id="path4293" />
  </g>
  <g
     transform="translate(-144.1489,185.91958)"
     style="display:inline"
     id="layer1">
    <path
       id="path4235"
       d="m 228.24031,43.66977 c -2.94456,28.28374 -12.32558,57.18365 -4.44737,88.97333 7.87821,31.78968 13.36868,77.18815 44.00711,102.11416 30.63843,24.92601 63.28031,56.32257 84.01358,60.78224 38.18494,-7.03707 65.26098,-35.77588 81.78495,-59.88232 16.52397,-24.10644 15.07627,-35.21491 23.83212,-66.54474 24.25941,-18.48594 14.39737,-63.38749 14.39737,-63.38749 l -19.38476,8.9992 C 448.88172,116.37758 433.42682,84.82773 433.42682,84.82773 424.99766,64.98794 430.97443,41.42165 432.62669,25.66634 418.49107,32.80509 397.24084,48.45227 383.01867,63.75655 365.09339,83.0457 338.5654,94.805136 319.00833,101.84676 277.37377,68.45751 224.12352,98.703326 228.24031,43.66977 Z"
       style="display:inline;fill:#ffffff;fill-opacity:1;fill-rule:evenodd;stroke:none;stroke-width:1px;stroke-linecap:butt;stroke-linejoin:miter;stroke-opacity:1" />
  </g>
  <g
     transform="translate(-144.1489,185.91958)"
     style="display:inline"
     id="layer5">
    <path
       id="path4265"
       d="m 333.41065,173.97502 -9.60155,28.36504 c -2.7041,7.98848 12.00194,17.01903 12.00194,17.01903 -11.2611,-6.73532 3.65956,-29.04864 -2.40039,-45.38407 z"
       style="fill:#000000;fill-opacity:1;fill-rule:evenodd;stroke:none;stroke-width:1px;stroke-linecap:butt;stroke-linejoin:miter;stroke-opacity:1" />
  </g>
  <g
     transform="translate(-144.1489,185.91958)"
     id="layer6">
    <path
       id="path4270"
       d="m 311.61094,242.02715 c 10.88548,2.67288 27.30225,1.67243 35.13041,8.35274 4.97971,-11.99134 17.43658,-5.40757 37.60438,-23.72179 0,0 -18.31377,35.90746 -35.6252,36.585 -17.31143,0.67754 -27.60359,-13.28028 -37.10959,-21.21595 z"
       style="fill:#44ff02;fill-opacity:1;fill-rule:evenodd;stroke:none;stroke-width:1px;stroke-linecap:butt;stroke-linejoin:miter;stroke-opacity:1" />
    <path
       id="path4268"
       d="m 311.50182,241.83265 c 0,0 16.01811,-1.96483 22.54275,-1.43387 6.52464,0.53096 6.55223,2.46577 9.26602,2.16252 2.71378,-0.30324 2.74727,-2.34208 8.1492,-4.85065 5.40193,-2.50858 33.27502,-12.24766 33.27502,-11.23159 0,0 -7.65374,11.93514 -34.03438,21.77955 -2.6149,3.37894 -5.28944,2.80714 -11.71449,1.70005 -16.02108,-1.8596 -27.48412,-8.12601 -27.48412,-8.12601 z"
       style="fill:#079700;fill-opacity:1;fill-rule:evenodd;stroke:none;stroke-width:1px;stroke-linecap:butt;stroke-linejoin:miter;stroke-opacity:1" />
  </g>
  <g
     transform="translate(-144.1489,185.91958)"
     style="display:inline"
     id="layer4">
    <path
       id="path4254"
       d="m 307.00639,145.60998 c -53.58611,-23.20512 -48.97545,-23.87034 -65.61061,-11.3302 16.8608,-3.79749 5.40063,-10.87708 65.61061,11.3302 z"
       style="fill:#000000;fill-opacity:1;fill-rule:evenodd;stroke:none;stroke-width:1px;stroke-linecap:butt;stroke-linejoin:miter;stroke-opacity:1" />
    <path
       id="path4258"
       d="m 299.53521,171.72272 c 8.97019,-2.0767 15.47248,-7.47285 15.47248,-7.47285 -30.26884,-15.64259 -44.95969,-12.87687 -64.81049,-16.2086 0,0 4.75171,10.81765 13.6022,16.20859 8.8505,5.39094 26.76563,9.54956 35.73581,7.47286 z"
       style="display:inline;fill:#000000;fill-opacity:1;fill-rule:evenodd;stroke:none;stroke-width:1px;stroke-linecap:butt;stroke-linejoin:miter;stroke-opacity:1" />
    <path
       id="path4256"
       d="m 349.41324,138.31611 c 19.70818,-9.15852 34.25194,-46.83979 66.41074,-20.26075 -25.7201,-37.40698 -42.71794,-1.24929 -66.41074,20.26075 z"
       style="display:inline;fill:#000000;fill-opacity:1;fill-rule:evenodd;stroke:none;stroke-width:1px;stroke-linecap:butt;stroke-linejoin:miter;stroke-opacity:1" />
    <path
       id="path4262"
       d="m 348.61311,161.81858 c 19.37595,-15.66939 38.36671,-33.61982 63.21022,-23.50247 0,0 -6.37472,13.02711 -12.1836,18.36639 -9.29758,8.54593 -20.72957,10.97707 -30.39996,10.26712 -9.67038,-0.70995 -20.62666,-5.13104 -20.62666,-5.13104 z"
       style="fill:#000000;fill-opacity:1;fill-rule:evenodd;stroke:none;stroke-width:1px;stroke-linecap:butt;stroke-linejoin:miter;stroke-opacity:1" />
  </g>
</svg>
